<svg xmlns="http://www.w3.org/2000/svg" viewBox="0 0 700 400">
  <!-- Title -->
  <text x="350" y="30" font-family="Arial, sans-serif" font-size="20" font-weight="bold" text-anchor="middle" fill="#333">
    Throughput: Baseline vs Optimized (FP8)
  </text>

  <!-- Subtitle -->
  <text x="350" y="52" font-family="Arial, sans-serif" font-size="14" text-anchor="middle" fill="#666">
    Output tokens per second (higher is better)
  </text>

  <!-- Background grid -->
  <line x1="80" y1="100" x2="80" y2="320" stroke="#ddd" stroke-width="2"/>
  <line x1="80" y1="320" x2="650" y2="320" stroke="#ddd" stroke-width="2"/>

  <!-- Y-axis labels and grid lines (0-2500) -->
  <g font-family="Arial, sans-serif" font-size="12" fill="#666">
    <text x="70" y="325" text-anchor="end">0</text>
    <line x1="80" y1="320" x2="650" y2="320" stroke="#eee" stroke-width="1"/>

    <text x="70" y="281" text-anchor="end">500</text>
    <line x1="80" y1="276" x2="650" y2="276" stroke="#eee" stroke-width="1"/>

    <text x="70" y="237" text-anchor="end">1000</text>
    <line x1="80" y1="232" x2="650" y2="232" stroke="#eee" stroke-width="1"/>

    <text x="70" y="193" text-anchor="end">1500</text>
    <line x1="80" y1="188" x2="650" y2="188" stroke="#eee" stroke-width="1"/>

    <text x="70" y="149" text-anchor="end">2000</text>
    <line x1="80" y1="144" x2="650" y2="144" stroke="#eee" stroke-width="1"/>

    <text x="70" y="105" text-anchor="end">2500</text>
    <line x1="80" y1="100" x2="650" y2="100" stroke="#eee" stroke-width="1"/>
  </g>

  <!-- Qwen2.5-14B bars (scale: 220px = 2500 tok/s) -->
  <!-- Baseline: 1172.50 tok/s = 103px -->
  <rect x="130" y="217" width="80" height="103" fill="#94a3b8" rx="4"/>
  <text x="170" y="211" font-family="Arial, sans-serif" font-size="14" font-weight="bold" text-anchor="middle" fill="#333">1173</text>

  <!-- Optimized: 2397.85 tok/s = 211px -->
  <rect x="220" y="109" width="80" height="211" fill="#10b981" rx="4"/>
  <text x="260" y="103" font-family="Arial, sans-serif" font-size="14" font-weight="bold" text-anchor="middle" fill="#333">2398</text>

  <!-- Improvement label for 14B -->
  <text x="260" y="85" font-family="Arial, sans-serif" font-size="13" font-weight="bold" text-anchor="middle" fill="#059669">+104%</text>

  <!-- Qwen2.5-32B bars -->
  <!-- Baseline: 1580.47 tok/s = 139px -->
  <rect x="400" y="181" width="80" height="139" fill="#94a3b8" rx="4"/>
  <text x="440" y="175" font-family="Arial, sans-serif" font-size="14" font-weight="bold" text-anchor="middle" fill="#333">1580</text>

  <!-- Optimized: 1854.70 tok/s = 163px -->
  <rect x="490" y="157" width="80" height="163" fill="#10b981" rx="4"/>
  <text x="530" y="151" font-family="Arial, sans-serif" font-size="14" font-weight="bold" text-anchor="middle" fill="#333">1855</text>

  <!-- Improvement label for 32B -->
  <text x="530" y="133" font-family="Arial, sans-serif" font-size="13" font-weight="bold" text-anchor="middle" fill="#059669">+17%</text>

  <!-- Model labels -->
  <text x="215" y="350" font-family="Arial, sans-serif" font-size="14" font-weight="bold" text-anchor="middle" fill="#333">Qwen2.5-14B</text>
  <text x="485" y="350" font-family="Arial, sans-serif" font-size="14" font-weight="bold" text-anchor="middle" fill="#333">Qwen2.5-32B</text>

  <!-- Legend -->
  <rect x="170" y="370" width="20" height="15" fill="#94a3b8" rx="2"/>
  <text x="195" y="381" font-family="Arial, sans-serif" font-size="12" fill="#666">FP16 Baseline</text>

  <rect x="300" y="370" width="20" height="15" fill="#10b981" rx="2"/>
  <text x="325" y="381" font-family="Arial, sans-serif" font-size="12" fill="#666">FP8 Optimized</text>
</svg>
